<svg width="45" height="39" viewBox="0 0 45 39" fill="none" xmlns="http://www.w3.org/2000/svg">
<path d="M24.75 7L24.75 4.25L19.25 4.25L19.25 7L24.75 7ZM19.25 29C19.25 30.5188 20.4812 31.75 22 31.75C23.5188 31.75 24.75 30.5188 24.75 29L19.25 29ZM19.25 7L19.25 29L24.75 29L24.75 7L19.25 7Z" fill="black"/>
<path d="M18.2683 22.1532L20.2133 24.0973L24.1015 20.2073L22.1565 18.2632L18.2683 22.1532ZM4.94405 1.05918C3.86985 -0.0145004 2.12865 -0.0140758 1.05497 1.06013C-0.0187123 2.13433 -0.0182868 3.87554 1.05592 4.94922L4.94405 1.05918ZM22.1565 18.2632L4.94405 1.05918L1.05592 4.94922L18.2683 22.1532L22.1565 18.2632Z" fill="black"/>
<path d="M27 33.25C25.4812 33.25 24.25 34.4812 24.25 36C24.25 37.5188 25.4812 38.75 27 38.75V33.25ZM27 4.25H24.25V9.75H27V4.25ZM38.75 21.5C38.75 27.9893 33.4893 33.25 27 33.25V38.75C36.5269 38.75 44.25 31.0269 44.25 21.5H38.75ZM27 9.75C33.4893 9.75 38.75 15.0107 38.75 21.5H44.25C44.25 11.9731 36.5269 4.25 27 4.25V9.75Z" fill="black"/>
</svg>
