<svg width="43" height="47" viewBox="0 0 43 47" fill="none" xmlns="http://www.w3.org/2000/svg">
<path d="M4.12577 41.5445L0.235229 0H43L39.1043 41.5379L21.5916 46.1588L4.12577 41.5445Z" fill="#1572B6"/>
<path d="M21.6176 42.6276L35.7698 38.8937L39.0991 3.39758H21.6176V42.6276Z" fill="#33A9DC"/>
<path d="M21.6176 18.4487H28.7023L29.1908 13.2311H21.6176V8.1355H35.0422L34.914 9.50213L33.5993 23.5443H21.6176V18.4487Z" fill="white"/>
<path d="M21.6505 31.6814L21.6262 31.688L15.664 30.1549L15.2829 26.0912H9.90784L10.6579 34.0916L21.6245 36.9897L21.6505 36.9831V31.6814Z" fill="#EBEBEB"/>
<path d="M28.2468 23.3282L27.6024 30.1515L21.6315 31.6846V36.9863L32.6067 34.0915L32.6882 33.231L33.6184 23.3282H28.2468Z" fill="white"/>
<path d="M21.6367 8.1355V13.2311H8.70407L8.59667 12.0854L8.35243 9.50213L8.22424 8.1355H21.6367ZM21.6177 18.4487V23.5443H15.7299L15.6225 22.3986L15.38 19.8153L15.2518 18.4487H21.6177Z" fill="#EBEBEB"/>
</svg>
