<?xml version="1.0" encoding="UTF-8"?>
<svg xmlns="http://www.w3.org/2000/svg" xmlns:xlink="http://www.w3.org/1999/xlink" width="47px" height="47px" viewBox="0 0 47 47" version="1.1">
<g id="surface1">
<path style=" stroke:none;fill-rule:nonzero;fill:rgb(0%,0%,0%);fill-opacity:1;" d="M 8.695312 13.839844 C 8.695312 14.171875 8.507812 14.335938 8.058594 14.382812 C 7.472656 14.453125 7.402344 14.546875 7.402344 15.273438 C 7.402344 16.050781 7.449219 16.097656 8.296875 16.167969 L 9.164062 16.238281 L 9.164062 14.945312 C 9.164062 14.242188 9.070312 13.582031 8.929688 13.511719 C 8.8125 13.441406 8.695312 13.582031 8.695312 13.839844 Z M 8.578125 15.273438 C 8.578125 15.652344 8.4375 15.886719 8.179688 15.933594 C 7.847656 16.003906 7.753906 15.863281 7.753906 15.273438 C 7.753906 14.6875 7.847656 14.546875 8.179688 14.617188 C 8.4375 14.664062 8.578125 14.898438 8.578125 15.273438 Z M 8.578125 15.273438 "/>
<path style=" stroke:none;fill-rule:nonzero;fill:rgb(0%,0%,0%);fill-opacity:1;" d="M 9.636719 15.605469 C 9.636719 16.402344 9.515625 16.921875 9.351562 17.015625 C 9.1875 17.085938 9.257812 17.132812 9.515625 17.085938 C 9.917969 17.039062 9.988281 16.824219 10.058594 15.675781 C 10.105469 14.851562 10.035156 14.335938 9.871094 14.335938 C 9.730469 14.335938 9.636719 14.875 9.636719 15.605469 Z M 9.636719 15.605469 "/>
<path style=" stroke:none;fill-rule:nonzero;fill:rgb(0%,0%,0%);fill-opacity:1;" d="M 11.46875 14.5 C 12.078125 14.617188 12.171875 15.039062 11.5625 15.039062 C 11.328125 15.039062 11.023438 15.15625 10.878906 15.296875 C 10.410156 15.769531 10.808594 16.214844 11.65625 16.214844 C 12.335938 16.214844 12.453125 16.144531 12.453125 15.652344 C 12.453125 14.6875 12.21875 14.335938 11.539062 14.359375 C 10.996094 14.40625 10.972656 14.40625 11.46875 14.5 Z M 11.984375 15.511719 C 11.984375 15.792969 11.328125 16.097656 11.140625 15.910156 C 10.925781 15.699219 11.28125 15.273438 11.65625 15.273438 C 11.84375 15.273438 11.984375 15.390625 11.984375 15.511719 Z M 11.984375 15.511719 "/>
<path style=" stroke:none;fill-rule:nonzero;fill:rgb(0%,0%,0%);fill-opacity:1;" d="M 12.925781 15.273438 C 12.925781 16.402344 13.324219 16.542969 13.441406 15.441406 C 13.488281 14.96875 13.628906 14.6875 13.863281 14.6875 C 14.101562 14.6875 14.242188 14.96875 14.289062 15.441406 C 14.335938 15.863281 14.429688 16.214844 14.523438 16.214844 C 14.664062 16.214844 14.6875 15.464844 14.59375 14.5 C 14.570312 14.40625 14.195312 14.335938 13.746094 14.335938 C 12.949219 14.335938 12.925781 14.359375 12.925781 15.273438 Z M 12.925781 15.273438 "/>
<path style=" stroke:none;fill-rule:nonzero;fill:rgb(0%,0%,0%);fill-opacity:1;" d="M 15.414062 14.523438 C 15.34375 14.640625 15.320312 15.039062 15.367188 15.414062 C 15.414062 15.792969 15.34375 16.238281 15.203125 16.402344 C 14.851562 16.847656 15.320312 17.203125 16.121094 17.109375 C 16.613281 17.0625 16.824219 16.898438 16.871094 16.496094 C 16.945312 16.074219 16.847656 15.980469 16.355469 15.980469 C 16.027344 15.980469 15.746094 15.863281 15.746094 15.746094 C 15.746094 15.605469 15.957031 15.511719 16.214844 15.511719 C 16.472656 15.511719 16.683594 15.441406 16.707031 15.320312 C 16.707031 15.226562 16.753906 14.96875 16.800781 14.734375 C 16.847656 14.429688 16.707031 14.335938 16.214844 14.335938 C 15.839844 14.335938 15.488281 14.429688 15.414062 14.523438 Z M 16.449219 14.921875 C 16.449219 15.109375 16.285156 15.273438 16.097656 15.273438 C 15.910156 15.273438 15.746094 15.109375 15.746094 14.921875 C 15.746094 14.734375 15.910156 14.570312 16.097656 14.570312 C 16.285156 14.570312 16.449219 14.734375 16.449219 14.921875 Z M 16.472656 16.566406 C 16.472656 16.683594 16.261719 16.824219 15.980469 16.871094 C 15.511719 16.945312 15.34375 16.683594 15.675781 16.355469 C 15.910156 16.144531 16.472656 16.285156 16.472656 16.566406 Z M 16.472656 16.566406 "/>
<path style=" stroke:none;fill-rule:nonzero;fill:rgb(0%,0%,0%);fill-opacity:1;" d="M 17.484375 14.664062 C 17.414062 14.851562 17.390625 15.25 17.4375 15.558594 C 17.53125 16.308594 18.917969 16.472656 19.152344 15.769531 C 19.410156 14.921875 19.082031 14.335938 18.304688 14.335938 C 17.929688 14.335938 17.554688 14.476562 17.484375 14.664062 Z M 18.683594 15.273438 C 18.683594 15.652344 18.542969 15.886719 18.28125 15.933594 C 17.953125 16.003906 17.859375 15.863281 17.859375 15.273438 C 17.859375 14.6875 17.953125 14.546875 18.28125 14.617188 C 18.542969 14.664062 18.683594 14.898438 18.683594 15.273438 Z M 18.683594 15.273438 "/>
<path style=" stroke:none;fill-rule:nonzero;fill:rgb(0%,0%,0%);fill-opacity:1;" d="M 27.683594 18.257812 C 27.824219 18.304688 28.105469 18.304688 28.269531 18.257812 C 28.410156 18.1875 28.292969 18.140625 27.964844 18.140625 C 27.636719 18.140625 27.519531 18.1875 27.683594 18.257812 Z M 27.683594 18.257812 "/>
<path style=" stroke:none;fill-rule:nonzero;fill:rgb(0%,0%,0%);fill-opacity:1;" d="M 7.097656 23.78125 L 7.167969 29.257812 L 8.8125 29.257812 L 8.882812 27.070312 L 8.953125 24.886719 L 9.800781 24.957031 C 10.597656 25.027344 10.738281 25.167969 11.867188 26.976562 C 12.550781 28.058594 13.347656 29.210938 13.675781 29.539062 C 14.21875 30.078125 14.335938 30.101562 14.828125 29.820312 C 15.203125 29.585938 16.589844 29.445312 19.035156 29.375 L 22.675781 29.257812 L 22.675781 27.847656 L 20.492188 27.777344 L 18.28125 27.707031 L 18.378906 25.96875 C 18.425781 25.003906 18.378906 24.203125 18.28125 24.203125 C 18.164062 24.203125 18.09375 25.050781 18.09375 26.085938 L 18.09375 27.964844 L 20.328125 27.964844 C 22.558594 27.964844 22.558594 27.964844 22.558594 28.550781 L 22.558594 29.140625 L 19.105469 29.140625 C 16.472656 29.140625 15.464844 29.234375 14.945312 29.492188 C 14.078125 29.960938 13.984375 29.867188 12.171875 27 L 10.691406 24.675781 L 8.695312 24.675781 L 8.695312 29.140625 L 7.285156 29.140625 L 7.285156 18.589844 L 9.46875 18.496094 L 11.632812 18.425781 L 9.328125 18.378906 L 7.050781 18.328125 Z M 7.097656 23.78125 "/>
<path style=" stroke:none;fill-rule:nonzero;fill:rgb(0%,0%,0%);fill-opacity:1;" d="M 16.636719 23.148438 C 16.589844 25.804688 16.636719 27.964844 16.753906 27.964844 C 16.847656 27.964844 16.921875 25.851562 16.921875 23.265625 L 16.921875 18.566406 L 19.738281 18.566406 C 22.394531 18.566406 22.558594 18.589844 22.558594 19.035156 C 22.558594 19.457031 22.371094 19.503906 20.398438 19.550781 L 18.210938 19.621094 L 18.140625 21.316406 L 18.070312 23.03125 L 21.621094 23.03125 C 23.546875 23.03125 25.144531 22.960938 25.144531 22.84375 C 25.144531 22.746094 25.027344 22.511719 24.886719 22.324219 C 24.675781 22.019531 24.652344 22.042969 24.769531 22.371094 C 24.886719 22.773438 24.628906 22.796875 21.597656 22.796875 L 18.304688 22.796875 L 18.378906 21.316406 L 18.449219 19.859375 L 20.632812 19.785156 L 22.796875 19.714844 L 22.796875 18.328125 L 16.707031 18.328125 Z M 16.636719 23.148438 "/>
<path style=" stroke:none;fill-rule:nonzero;fill:rgb(0%,0%,0%);fill-opacity:1;" d="M 25.710938 18.777344 C 24.863281 19.292969 24.371094 20.351562 24.511719 21.289062 C 24.582031 21.878906 24.605469 21.855469 24.652344 21.101562 C 24.675781 20.046875 25.589844 18.894531 26.625 18.589844 C 27.117188 18.449219 27.214844 18.351562 26.90625 18.351562 C 26.648438 18.328125 26.109375 18.542969 25.710938 18.777344 Z M 25.710938 18.777344 "/>
<path style=" stroke:none;fill-rule:nonzero;fill:rgb(0%,0%,0%);fill-opacity:1;" d="M 34.144531 18.496094 C 39.527344 18.566406 39.714844 18.589844 39.714844 19.035156 C 39.714844 19.457031 39.550781 19.503906 38.1875 19.503906 L 36.660156 19.503906 L 36.660156 29.140625 L 35.484375 29.140625 L 35.4375 24.371094 L 35.367188 19.621094 L 33.039062 19.550781 C 31.65625 19.503906 30.621094 19.574219 30.433594 19.738281 C 30.222656 19.90625 29.9375 19.90625 29.515625 19.738281 C 28.175781 19.246094 26.085938 19.667969 26.085938 20.46875 C 26.085938 20.585938 26.296875 20.46875 26.554688 20.210938 C 27.09375 19.667969 28.386719 19.574219 29.609375 20 C 30.175781 20.210938 30.410156 20.210938 30.527344 20 C 30.644531 19.808594 31.417969 19.738281 32.921875 19.785156 L 35.132812 19.859375 L 35.203125 24.605469 L 35.25 29.375 L 36.894531 29.375 L 36.894531 19.738281 L 39.949219 19.738281 L 39.949219 18.328125 L 34.261719 18.378906 L 28.550781 18.449219 Z M 34.144531 18.496094 "/>
<path style=" stroke:none;fill-rule:nonzero;fill:rgb(0%,0%,0%);fill-opacity:1;" d="M 12.359375 18.894531 C 13.417969 19.363281 13.863281 20.117188 13.863281 21.480469 C 13.863281 22.511719 13.769531 22.722656 12.902344 23.546875 C 12.382812 24.039062 11.984375 24.605469 12.054688 24.769531 C 12.265625 25.308594 13.839844 27.683594 14.101562 27.847656 C 14.242188 27.941406 13.863281 27.238281 13.253906 26.296875 L 12.148438 24.605469 L 12.878906 23.992188 C 13.816406 23.171875 14.101562 22.558594 14.101562 21.265625 C 14.101562 20.328125 13.984375 20.046875 13.300781 19.363281 C 12.855469 18.917969 12.3125 18.566406 12.078125 18.566406 C 11.773438 18.589844 11.890625 18.683594 12.359375 18.894531 Z M 12.359375 18.894531 "/>
<path style=" stroke:none;fill-rule:nonzero;fill:rgb(0%,0%,0%);fill-opacity:1;" d="M 8.695312 21.621094 L 8.695312 23.734375 L 9.636719 23.734375 C 11.539062 23.734375 12.691406 22.84375 12.691406 21.363281 C 12.691406 20.773438 11.679688 19.738281 11.117188 19.738281 C 10.855469 19.761719 10.996094 19.882812 11.445312 20.09375 C 12.335938 20.46875 12.644531 21.316406 12.21875 22.324219 C 11.914062 23.054688 10.925781 23.5 9.589844 23.5 L 8.929688 23.5 L 8.929688 19.761719 L 9.707031 19.667969 C 10.433594 19.574219 10.433594 19.574219 9.589844 19.550781 L 8.695312 19.503906 Z M 8.695312 21.621094 "/>
<path style=" stroke:none;fill-rule:nonzero;fill:rgb(0%,0%,0%);fill-opacity:1;" d="M 26.085938 21.503906 C 26.109375 22.042969 26.601562 22.441406 28.363281 23.359375 C 29.773438 24.109375 30.292969 24.511719 30.597656 25.144531 C 30.832031 25.589844 31.019531 25.78125 31.019531 25.566406 C 31.019531 24.863281 29.890625 23.804688 28.339844 23.078125 C 27.519531 22.675781 26.671875 22.113281 26.460938 21.832031 C 26.25 21.527344 26.085938 21.386719 26.085938 21.503906 Z M 26.085938 21.503906 "/>
<path style=" stroke:none;fill-rule:nonzero;fill:rgb(0%,0%,0%);fill-opacity:1;" d="M 23.382812 24.203125 C 23.453125 24.324219 23.570312 24.441406 23.640625 24.441406 C 23.6875 24.441406 23.734375 24.324219 23.734375 24.203125 C 23.734375 24.0625 23.617188 23.96875 23.476562 23.96875 C 23.359375 23.96875 23.3125 24.0625 23.382812 24.203125 Z M 23.382812 24.203125 "/>
<path style=" stroke:none;fill-rule:nonzero;fill:rgb(0%,0%,0%);fill-opacity:1;" d="M 28.011719 24.816406 C 29.1875 25.402344 29.5625 26.085938 29.257812 27.023438 C 29.164062 27.308594 28.882812 27.613281 28.597656 27.753906 C 28.152344 27.941406 28.128906 27.964844 28.550781 27.894531 C 29.257812 27.824219 29.773438 26.742188 29.492188 25.921875 C 29.257812 25.332031 27.730469 24.203125 27.140625 24.226562 C 27.023438 24.226562 27.402344 24.488281 28.011719 24.816406 Z M 28.011719 24.816406 "/>
<path style=" stroke:none;fill-rule:nonzero;fill:rgb(0%,0%,0%);fill-opacity:1;" d="M 30.550781 27.566406 C 30.363281 27.988281 29.820312 28.503906 29.375 28.71875 C 28.457031 29.1875 26.4375 29.28125 25.167969 28.90625 C 24.558594 28.742188 24.417969 28.742188 24.628906 28.953125 C 24.769531 29.09375 25.710938 29.257812 26.71875 29.304688 C 28.175781 29.375 28.71875 29.304688 29.351562 28.976562 C 30.222656 28.527344 31.136719 27.472656 30.996094 27.070312 C 30.949219 26.929688 30.738281 27.164062 30.550781 27.566406 Z M 30.550781 27.566406 "/>
<path style=" stroke:none;fill-rule:nonzero;fill:rgb(0%,0%,0%);fill-opacity:1;" d="M 24.441406 27.449219 C 24.441406 27.542969 24.675781 27.660156 24.957031 27.660156 C 25.378906 27.707031 25.425781 27.660156 25.144531 27.496094 C 24.722656 27.214844 24.441406 27.191406 24.441406 27.449219 Z M 24.441406 27.449219 "/>
<path style=" stroke:none;fill-rule:nonzero;fill:rgb(0%,0%,0%);fill-opacity:1;" d="M 26.085938 27.964844 C 26.671875 28.152344 28.128906 28.269531 27.941406 28.105469 C 27.894531 28.058594 27.332031 27.964844 26.671875 27.894531 C 25.875 27.800781 25.683594 27.824219 26.085938 27.964844 Z M 26.085938 27.964844 "/>
<path style=" stroke:none;fill-rule:nonzero;fill:rgb(0%,0%,0%);fill-opacity:1;" d="M 20.304688 31.300781 C 20.09375 31.960938 20.1875 33.183594 20.46875 33.464844 C 20.585938 33.605469 20.679688 33.371094 20.679688 32.851562 C 20.679688 32.382812 20.820312 31.9375 20.984375 31.867188 C 21.21875 31.75 21.21875 31.703125 20.984375 31.585938 C 20.5625 31.394531 20.609375 31.066406 21.101562 30.949219 C 21.410156 30.855469 21.386719 30.832031 20.984375 30.808594 C 20.65625 30.785156 20.421875 30.972656 20.304688 31.300781 Z M 20.304688 31.300781 "/>
<path style=" stroke:none;fill-rule:nonzero;fill:rgb(0%,0%,0%);fill-opacity:1;" d="M 38.070312 32.054688 C 38.070312 32.757812 38.1875 33.417969 38.304688 33.488281 C 38.445312 33.558594 38.539062 33.417969 38.539062 33.160156 C 38.539062 32.523438 38.820312 32.523438 39.199219 33.136719 C 39.363281 33.394531 39.597656 33.605469 39.761719 33.605469 C 39.902344 33.605469 39.832031 33.394531 39.574219 33.113281 C 39.222656 32.734375 39.199219 32.546875 39.433594 32.195312 C 39.878906 31.464844 39.761719 31.371094 39.128906 31.960938 L 38.539062 32.5 L 38.539062 31.65625 C 38.539062 31.183594 38.445312 30.785156 38.304688 30.785156 C 38.1875 30.785156 38.070312 31.347656 38.070312 32.054688 Z M 38.070312 32.054688 "/>
<path style=" stroke:none;fill-rule:nonzero;fill:rgb(0%,0%,0%);fill-opacity:1;" d="M 21.621094 32.59375 C 21.621094 33.160156 21.738281 33.605469 21.855469 33.605469 C 21.996094 33.605469 22.089844 33.230469 22.089844 32.78125 C 22.089844 32.21875 22.207031 31.960938 22.441406 31.960938 C 22.628906 31.960938 22.796875 31.867188 22.796875 31.75 C 22.796875 31.632812 22.535156 31.558594 22.207031 31.585938 C 21.667969 31.609375 21.621094 31.703125 21.621094 32.59375 Z M 21.621094 32.59375 "/>
<path style=" stroke:none;fill-rule:nonzero;fill:rgb(0%,0%,0%);fill-opacity:1;" d="M 23.5 31.703125 C 23.5 31.820312 23.640625 31.890625 23.804688 31.867188 C 24.277344 31.820312 24.253906 32.3125 23.757812 32.382812 C 23.5 32.429688 23.242188 32.59375 23.171875 32.78125 C 23.007812 33.230469 23.570312 33.628906 24.226562 33.535156 C 25.285156 33.371094 25.027344 31.488281 23.945312 31.488281 C 23.6875 31.488281 23.5 31.585938 23.5 31.703125 Z M 24.441406 32.875 C 24.441406 33.136719 23.828125 33.394531 23.640625 33.207031 C 23.359375 32.921875 23.523438 32.664062 23.96875 32.664062 C 24.226562 32.664062 24.441406 32.757812 24.441406 32.875 Z M 24.441406 32.875 "/>
<path style=" stroke:none;fill-rule:nonzero;fill:rgb(0%,0%,0%);fill-opacity:1;" d="M 25.378906 32.59375 C 25.378906 33.160156 25.496094 33.605469 25.613281 33.605469 C 25.757812 33.605469 25.851562 33.253906 25.851562 32.804688 C 25.851562 32.359375 25.945312 31.9375 26.0625 31.867188 C 26.390625 31.65625 26.859375 32.382812 26.71875 32.898438 C 26.648438 33.160156 26.695312 33.441406 26.8125 33.511719 C 26.929688 33.582031 27.023438 33.324219 27.023438 32.945312 C 27.023438 32.265625 27.519531 31.585938 27.800781 31.890625 C 27.894531 31.960938 27.964844 32.382812 27.964844 32.828125 C 27.964844 33.253906 28.082031 33.605469 28.199219 33.605469 C 28.480469 33.605469 28.503906 32.21875 28.246094 31.820312 C 28.152344 31.65625 27.519531 31.558594 26.742188 31.585938 L 25.378906 31.609375 Z M 25.378906 32.59375 "/>
<path style=" stroke:none;fill-rule:nonzero;fill:rgb(0%,0%,0%);fill-opacity:1;" d="M 29.1875 31.773438 C 28.835938 32.125 28.8125 32.945312 29.1875 33.324219 C 29.515625 33.652344 30.550781 33.699219 30.550781 33.371094 C 30.550781 33.253906 30.316406 33.160156 30.054688 33.207031 C 29.773438 33.230469 29.492188 33.113281 29.445312 32.945312 C 29.375 32.78125 29.5625 32.664062 29.960938 32.664062 C 30.480469 32.664062 30.574219 32.570312 30.503906 32.125 C 30.433594 31.535156 29.65625 31.300781 29.1875 31.773438 Z M 30.175781 32.21875 C 30.007812 32.476562 29.375 32.5 29.375 32.242188 C 29.375 31.914062 29.632812 31.75 29.984375 31.890625 C 30.175781 31.960938 30.246094 32.101562 30.175781 32.21875 Z M 30.175781 32.21875 "/>
<path style=" stroke:none;fill-rule:nonzero;fill:rgb(0%,0%,0%);fill-opacity:1;" d="M 31.019531 31.796875 C 31.019531 32.335938 31.511719 33.605469 31.75 33.605469 C 31.84375 33.605469 32.03125 33.253906 32.148438 32.828125 C 32.382812 32.054688 32.429688 32.101562 32.804688 33.300781 C 32.96875 33.886719 33.300781 33.605469 33.582031 32.640625 C 33.933594 31.464844 33.722656 31.089844 33.324219 32.21875 L 33.039062 33.015625 L 32.851562 32.242188 C 32.617188 31.347656 32.265625 31.253906 32.054688 32.078125 C 31.890625 32.78125 31.488281 32.851562 31.488281 32.21875 C 31.488281 31.960938 31.394531 31.679688 31.253906 31.609375 C 31.136719 31.535156 31.019531 31.609375 31.019531 31.796875 Z M 31.019531 31.796875 "/>
<path style=" stroke:none;fill-rule:nonzero;fill:rgb(0%,0%,0%);fill-opacity:1;" d="M 34.285156 31.984375 C 34.097656 32.359375 34.097656 32.640625 34.285156 33.039062 C 34.710938 34.003906 35.953125 33.628906 35.953125 32.546875 C 35.953125 31.511719 34.78125 31.113281 34.285156 31.984375 Z M 35.460938 32.921875 C 35.179688 33.488281 34.546875 33.230469 34.546875 32.546875 C 34.546875 31.867188 35.039062 31.65625 35.414062 32.148438 C 35.601562 32.382812 35.625 32.617188 35.460938 32.921875 Z M 35.460938 32.921875 "/>
<path style=" stroke:none;fill-rule:nonzero;fill:rgb(0%,0%,0%);fill-opacity:1;" d="M 36.542969 31.703125 C 36.332031 31.914062 36.425781 33.347656 36.660156 33.488281 C 36.800781 33.582031 36.894531 33.324219 36.894531 32.898438 C 36.894531 32.476562 37.035156 32.125 37.246094 32.054688 C 37.765625 31.84375 37.671875 31.511719 37.128906 31.558594 C 36.847656 31.585938 36.589844 31.632812 36.542969 31.703125 Z M 36.542969 31.703125 "/>
</g>
</svg>
