<svg width="43" height="47" viewBox="0 0 43 47" fill="none" xmlns="http://www.w3.org/2000/svg">
<path d="M4.06116 41.5445L0.168884 0H42.9371L39.0396 41.5379L21.527 46.1588L4.06116 41.5445Z" fill="#E44F26"/>
<path d="M21.5529 42.6276L35.7051 38.8937L39.0344 3.39758H21.5529V42.6276Z" fill="#F1662A"/>
<path d="M21.5529 18.8047H14.4682L13.9797 13.5871H21.5529V8.49152H8.1283L8.25648 9.85979L9.57123 23.9003H21.5529V18.8047ZM21.5529 32.0374L21.5287 32.044L15.5664 30.5125L15.1853 26.4489H9.81027L10.5603 34.4476L21.5287 37.3457L21.5529 37.3391V32.0374Z" fill="#EBEBEB"/>
<path d="M21.5339 18.8047V23.9003H28.1267L27.5065 30.5092L21.5339 32.0424V37.344L32.5109 34.4476L32.5906 33.587L33.8481 20.173L33.9798 18.8047H21.5339ZM21.5339 8.49152V13.5871H34.4665L34.5739 12.443L34.8182 9.85979L34.9464 8.49152H21.5339Z" fill="white"/>
</svg>
