<svg width="36" height="36" viewBox="0 0 36 36" fill="none" xmlns="http://www.w3.org/2000/svg">
<g clip-path="url(#clip0_3_49)">
<path d="M18.0019 0.0100708C27.0433 0.0100708 26.4788 3.94634 26.4788 3.94634L26.4687 8.02443H17.8407V9.24878H29.8956C29.8956 9.24878 35.6812 8.59005 35.6812 17.7485C35.6812 26.9073 30.6314 26.5825 30.6314 26.5825H27.6177V22.3325C27.6177 22.3325 27.7802 17.2629 22.6485 17.2629H14.091C14.091 17.2629 9.2832 17.3408 9.2832 12.598V4.75599C9.2832 4.75599 8.55299 0.0100708 18.0019 0.0100708ZM22.7594 2.75251C22.5555 2.75232 22.3536 2.7925 22.1652 2.87075C21.9768 2.94899 21.8056 3.06377 21.6614 3.2085C21.5173 3.35324 21.4029 3.52509 21.325 3.71423C21.2471 3.90337 21.207 4.10608 21.2072 4.31077C21.207 4.51546 21.2471 4.71817 21.325 4.90731C21.4029 5.09645 21.5173 5.26831 21.6614 5.41304C21.8056 5.55778 21.9768 5.67255 22.1652 5.7508C22.3536 5.82904 22.5555 5.86922 22.7594 5.86904C22.9633 5.86922 23.1652 5.82904 23.3536 5.7508C23.542 5.67255 23.7132 5.55778 23.8574 5.41304C24.0015 5.26831 24.1159 5.09645 24.1938 4.90731C24.2717 4.71817 24.3118 4.51546 24.3116 4.31077C24.3118 4.10608 24.2717 3.90337 24.1938 3.71423C24.1159 3.52509 24.0015 3.35324 23.8574 3.2085C23.7132 3.06377 23.542 2.94899 23.3536 2.87075C23.1652 2.7925 22.9633 2.75232 22.7594 2.75251Z" fill="url(#paint0_linear_3_49)"/>
<path d="M17.7452 35.5791C8.70376 35.5791 9.26829 31.6429 9.26829 31.6429L9.27834 27.5649H17.9065V26.3406H5.85155C5.85155 26.3406 0.0659561 26.9993 0.0659561 17.8405C0.0659561 8.68192 5.11576 9.00673 5.11576 9.00673H8.12947V13.2566C8.12947 13.2566 7.967 18.3262 13.0987 18.3262H21.6562C21.6562 18.3262 26.464 18.2482 26.464 22.9912V30.8334C26.464 30.8334 27.1941 35.5791 17.7453 35.5791H17.7452ZM12.9877 32.837C13.1916 32.8372 13.3935 32.797 13.5819 32.7188C13.7703 32.6405 13.9415 32.5257 14.0856 32.381C14.2298 32.2363 14.3441 32.0644 14.4221 31.8753C14.5 31.6861 14.54 31.4834 14.5398 31.2787C14.54 31.074 14.5 30.8713 14.4221 30.6821C14.3442 30.493 14.2298 30.3211 14.0857 30.1764C13.9415 30.0316 13.7703 29.9168 13.5819 29.8386C13.3935 29.7603 13.1916 29.7201 12.9877 29.7203C12.7838 29.7201 12.5819 29.7603 12.3935 29.8386C12.2051 29.9168 12.0339 30.0316 11.8897 30.1763C11.7455 30.321 11.6312 30.4929 11.5533 30.682C11.4753 30.8712 11.4353 31.0739 11.4355 31.2786C11.4353 31.4833 11.4753 31.686 11.5533 31.8751C11.6312 32.0643 11.7455 32.2361 11.8897 32.3809C12.0339 32.5256 12.2051 32.6404 12.3935 32.7186C12.5819 32.7969 12.7838 32.8372 12.9877 32.837Z" fill="url(#paint1_linear_3_49)"/>
</g>
<defs>
<linearGradient id="paint0_linear_3_49" x1="-306.581" y1="319.932" x2="-2078.41" y2="2067.23" gradientUnits="userSpaceOnUse">
<stop stop-color="#387EB8"/>
<stop offset="1" stop-color="#366994"/>
</linearGradient>
<linearGradient id="paint1_linear_3_49" x1="-478.715" y1="555.868" x2="-2381.11" y2="2347.24" gradientUnits="userSpaceOnUse">
<stop stop-color="#FFE052"/>
<stop offset="1" stop-color="#FFC331"/>
</linearGradient>
<clipPath id="clip0_3_49">
<rect width="35.7015" height="35.7015" fill="white" transform="matrix(-1 0 0 1 35.7015 0)"/>
</clipPath>
</defs>
</svg>
