<svg width="49" height="49" viewBox="0 0 49 49" fill="none" xmlns="http://www.w3.org/2000/svg">
<g clip-path="url(#clip0_3_16)">
<path d="M0.0397339 0H48.5416V48.5018H0.0397339V0Z" fill="#F7DF1E"/>
<path d="M12.7927 40.5316L16.5042 38.2854C17.2204 39.555 17.8717 40.6292 19.4342 40.6292C20.9319 40.6292 21.8763 40.0434 21.8763 37.7646V22.2671H26.4342V37.829C26.4342 42.5498 23.6669 44.6986 19.6295 44.6986C15.9834 44.6986 13.8669 42.8103 12.7925 40.5313M28.9099 40.0432L32.621 37.8945C33.5981 39.49 34.8678 40.662 37.1141 40.662C39.0028 40.662 40.207 39.7177 40.207 38.4154C40.207 36.8527 38.9698 36.2991 36.8861 35.3878L35.7469 34.899C32.4585 33.4994 30.2772 31.7413 30.2772 28.0297C30.2772 24.6111 32.8817 22.0064 36.9515 22.0064C39.8491 22.0064 41.9328 23.0159 43.4303 25.6529L39.8813 27.9322C39.0998 26.5322 38.2537 25.9788 36.9513 25.9788C35.6164 25.9788 34.7699 26.8253 34.7699 27.9322C34.7699 29.2995 35.6164 29.8533 37.5697 30.6998L38.7091 31.188C42.5836 32.8487 44.7649 34.5415 44.7649 38.3504C44.7649 42.453 41.5418 44.6992 37.2116 44.6992C32.9793 44.6992 30.2444 42.6807 28.9097 40.0434" fill="black"/>
</g>
<defs>
<clipPath id="clip0_3_16">
<rect width="48.5018" height="48.5018" fill="white" transform="translate(0.0397339)"/>
</clipPath>
</defs>
</svg>
