<svg width="50" height="49" viewBox="0 0 50 49" fill="none" xmlns="http://www.w3.org/2000/svg">
<path d="M25.0324 4.04181C22.3785 4.04181 19.7505 4.56453 17.2987 5.58014C14.8468 6.59574 12.619 8.08433 10.7424 9.96092C6.95242 13.7509 4.82326 18.8911 4.82326 24.2509C4.82326 33.1833 10.6233 40.7617 18.6463 43.4496C19.6567 43.6112 19.9801 42.9847 19.9801 42.4391V39.0238C14.3822 40.2363 13.1898 36.3157 13.1898 36.3157C12.2602 33.9715 10.9466 33.345 10.9466 33.345C9.10759 32.092 11.0881 32.1325 11.0881 32.1325C13.109 32.2739 14.1801 34.214 14.1801 34.214C15.9383 37.2858 18.909 36.3764 20.0609 35.8914C20.2428 34.5778 20.7682 33.6886 21.3341 33.1833C16.8477 32.6781 12.139 30.9401 12.139 23.2405C12.139 20.9972 12.9069 19.1986 14.2205 17.7638C14.0184 17.2586 13.3111 15.1568 14.4226 12.4286C14.4226 12.4286 16.1201 11.8829 19.9801 14.4899C21.5766 14.0453 23.3146 13.823 25.0324 13.823C26.7501 13.823 28.4881 14.0453 30.0846 14.4899C33.9446 11.8829 35.6421 12.4286 35.6421 12.4286C36.7536 15.1568 36.0463 17.2586 35.8442 17.7638C37.1578 19.1986 37.9258 20.9972 37.9258 23.2405C37.9258 30.9603 33.1968 32.6579 28.6902 33.1631C29.4177 33.7896 30.0846 35.0224 30.0846 36.9018V42.4391C30.0846 42.9847 30.408 43.6314 31.4386 43.4496C39.4617 40.7415 45.2415 33.1833 45.2415 24.2509C45.2415 21.597 44.7187 18.9691 43.7031 16.5172C42.6875 14.0653 41.1989 11.8375 39.3223 9.96092C37.4458 8.08433 35.2179 6.59574 32.766 5.58014C30.3142 4.56453 27.6863 4.04181 25.0324 4.04181Z" fill="white"/>
</svg>
