<svg width="50" height="49" viewBox="0 0 50 49" fill="none" xmlns="http://www.w3.org/2000/svg">
<g clip-path="url(#clip0_3_37)">
<path d="M37.6574 0H11.8908C5.61263 0 0.523178 5.08946 0.523178 11.3676V37.1342C0.523178 43.4124 5.61263 48.5018 11.8908 48.5018H37.6574C43.9356 48.5018 49.025 43.4124 49.025 37.1342V11.3676C49.025 5.08946 43.9356 0 37.6574 0Z" fill="#242938"/>
<path fill-rule="evenodd" clip-rule="evenodd" d="M41.4174 14.8374C41.4296 14.8835 41.436 14.931 41.436 14.9789V22.4056C41.436 22.5009 41.4112 22.5945 41.3642 22.6769C41.3173 22.7592 41.2495 22.8276 41.1677 22.8753L35.0205 26.464V33.5773C35.0208 33.6721 34.9963 33.7653 34.9494 33.8477C34.9026 33.9301 34.8351 33.9989 34.7535 34.0472L21.9218 41.5375C21.8924 41.5543 21.8604 41.5651 21.8284 41.5767C21.8162 41.5809 21.8051 41.5883 21.7924 41.5917C21.7027 41.6155 21.6083 41.6155 21.5186 41.5917C21.504 41.5875 21.4906 41.5794 21.4765 41.5741C21.4472 41.5633 21.4165 41.5538 21.3884 41.5375L8.55933 34.0472C8.47764 33.9994 8.40995 33.931 8.36305 33.8488C8.31588 33.7661 8.29106 33.6725 8.29105 33.5773V11.2974C8.29105 11.2485 8.29768 11.2011 8.30981 11.1553C8.3136 11.1395 8.32307 11.1253 8.32838 11.1098C8.33842 11.0814 8.3477 11.0524 8.36248 11.0259C8.37252 11.0082 8.38711 10.994 8.39924 10.9779C8.41439 10.9561 8.4286 10.9338 8.4466 10.9148C8.46176 10.8993 8.48203 10.8877 8.49927 10.8743C8.5186 10.858 8.53603 10.8404 8.558 10.8275H8.55876L14.9733 7.08243C15.0544 7.03512 15.1465 7.01019 15.2404 7.01019C15.3342 7.01019 15.4264 7.03512 15.5074 7.08243L21.9223 10.8275H21.9237C21.9449 10.8411 21.9631 10.858 21.9824 10.8735C21.9996 10.8872 22.019 10.8993 22.0343 10.9143C22.0531 10.9338 22.0665 10.9561 22.0824 10.9779C22.0938 10.994 22.1092 11.0082 22.1184 11.0259C22.1338 11.0529 22.1425 11.0814 22.1533 11.1098C22.1586 11.1253 22.1679 11.1395 22.1719 11.1558C22.1842 11.2021 22.1904 11.2496 22.1906 11.2974V25.2132L27.5361 22.0922V14.978C27.5361 14.9306 27.5427 14.8827 27.5548 14.8374C27.5595 14.8211 27.5681 14.8069 27.5736 14.7914C27.5842 14.763 27.5935 14.7338 27.6082 14.7074C27.6183 14.6898 27.6329 14.6756 27.6442 14.6593C27.6603 14.6377 27.6736 14.6154 27.6924 14.5964C27.7077 14.5809 27.727 14.5693 27.7445 14.5557C27.7644 14.5396 27.7818 14.522 27.8032 14.5091H27.804L34.2195 10.7638C34.3004 10.7164 34.3926 10.6914 34.4864 10.6914C34.5802 10.6914 34.6724 10.7164 34.7534 10.7638L41.1683 14.5091C41.191 14.5227 41.2083 14.5394 41.2284 14.5551C41.245 14.5686 41.2643 14.5809 41.2797 14.5957C41.2985 14.6154 41.3117 14.6377 41.3278 14.6593C41.3398 14.6756 41.3545 14.6896 41.3638 14.7074C41.3792 14.734 41.3879 14.763 41.3985 14.7914C41.4045 14.8069 41.4135 14.8211 41.4174 14.8374ZM40.3667 22.0922V15.9164L38.1218 17.2267L35.0205 19.0374V25.2132L40.3673 22.0922H40.3667ZM33.9517 33.2639V27.0841L30.9012 28.8508L22.1901 33.8922V40.1302L33.9517 33.2639ZM9.36037 12.2348V33.2639L21.1207 40.1296V33.8928L14.9769 30.3669L14.975 30.3656L14.9722 30.3643C14.9515 30.3521 14.9343 30.3345 14.9148 30.3195C14.8981 30.3061 14.8788 30.2953 14.8642 30.2803L14.8629 30.2784C14.8454 30.2614 14.8333 30.2405 14.8187 30.2214C14.8055 30.2032 14.7894 30.1877 14.7787 30.1687L14.778 30.1666C14.7659 30.1464 14.7585 30.1219 14.7499 30.099C14.7412 30.0787 14.7299 30.0598 14.7246 30.038V30.0372C14.7179 30.0117 14.7166 29.9846 14.7138 29.9581C14.7111 29.9378 14.7058 29.9175 14.7058 29.8972V15.356L11.6053 13.5445L9.36037 12.2354V12.2348ZM15.2412 8.17751L9.89654 11.2975L15.2399 14.4172L20.584 11.2968L15.2399 8.1777L15.2412 8.17751ZM18.0208 27.6472L21.1215 25.8373V12.2348L18.8764 13.5453L15.7753 15.3558V28.9585L18.0208 27.6472ZM34.4866 11.8591L29.1423 14.9789L34.4866 18.0986L39.8299 14.9782L34.4866 11.8591ZM33.9517 19.0374L30.8505 17.2267L28.6057 15.9164V22.0922L31.7063 23.9021L33.9517 25.2132V19.0374ZM21.6548 32.9547L29.4934 28.4168L33.4118 26.1493L28.0717 23.0316L21.9231 26.6211L16.3192 29.8925L21.6548 32.9547Z" fill="#FF2D20"/>
</g>
<defs>
<clipPath id="clip0_3_37">
<rect width="48.5018" height="48.5018" fill="white" transform="translate(0.523178)"/>
</clipPath>
</defs>
</svg>
