<svg width="49" height="49" viewBox="0 0 49 49" fill="none" xmlns="http://www.w3.org/2000/svg">
<path d="M24.645 28.0007C26.7377 28.0007 28.4342 26.3042 28.4342 24.2115C28.4342 22.1188 26.7377 20.4223 24.645 20.4223C22.5522 20.4223 20.8558 22.1188 20.8558 24.2115C20.8558 26.3042 22.5522 28.0007 24.645 28.0007Z" fill="#00D8FF"/>
<path d="M24.645 32.8994C20.0905 33.0095 15.5475 32.3956 11.1857 31.0806C9.17079 30.4418 7.29152 29.4357 5.64286 28.1129C5.01374 27.661 4.48984 27.0783 4.10708 26.4049C3.72433 25.7315 3.49179 24.9832 3.42542 24.2115C3.42542 21.7061 6.17789 19.2507 10.7886 17.644C15.267 16.2204 19.9462 15.5305 24.645 15.6009C29.281 15.5361 33.8975 16.2136 38.3195 17.6077C40.26 18.2263 42.0755 19.1839 43.6819 20.4359C44.3003 20.8667 44.8164 21.4283 45.1935 22.0807C45.5707 22.7332 45.7998 23.4606 45.8645 24.2115C45.8645 26.8154 42.7877 29.4542 37.8314 31.0942C33.554 32.3664 29.1069 32.9752 24.645 32.8994ZM24.645 17.4137C20.1496 17.3536 15.6734 18.0095 11.3843 19.3568C7.14035 20.8376 5.23817 22.8625 5.23817 24.2069C5.23817 25.6135 7.28283 27.8249 11.7723 29.3603C15.9451 30.612 20.2898 31.1947 24.645 31.0866C28.9137 31.163 33.1691 30.5854 37.263 29.3739C41.9238 27.8294 44.0457 25.615 44.0457 24.2115C43.9692 23.7298 43.7937 23.2693 43.5302 22.8589C43.2667 22.4486 42.921 22.0973 42.5149 21.8273C41.0776 20.7165 39.4558 19.8679 37.7238 19.3204C33.4936 17.9923 29.0783 17.3486 24.645 17.4137Z" fill="#00D8FF"/>
<path d="M16.0359 43.1106C15.3288 43.1268 14.6301 42.9553 14.0109 42.6134C11.8405 41.3615 11.0887 37.7511 11.9996 32.954C13.004 28.3631 14.7442 23.9649 17.153 19.9297C19.4124 15.8815 22.305 12.2208 25.7211 9.08654C27.2264 7.7144 28.9629 6.61983 30.8502 5.85359C31.5328 5.53369 32.2774 5.36786 33.0312 5.36786C33.7851 5.36786 34.5297 5.53369 35.2123 5.85359C37.4692 7.15404 38.2164 11.1373 37.163 16.2497C36.1276 20.5914 34.4326 24.7487 32.137 28.5767C29.957 32.5771 27.1555 36.2059 23.8371 39.3274C22.2771 40.7534 20.4667 41.8783 18.4974 42.6453C17.7089 42.9379 16.8767 43.0952 16.0359 43.1106ZM18.7232 20.83C16.4256 24.694 14.7577 28.8991 13.7821 33.2874C12.9439 37.7057 13.7487 40.3626 14.9188 41.0386C16.1314 41.7404 19.0748 41.075 22.6488 37.9527C25.8166 34.9622 28.4906 31.4886 30.5713 27.6612C32.7704 24.0016 34.3964 20.0269 35.3927 15.8753C36.3839 11.063 35.5276 8.1165 34.312 7.41626C33.8564 7.24169 33.3695 7.16355 32.8822 7.18677C32.3949 7.20999 31.9176 7.33406 31.4807 7.55115C29.8008 8.24434 28.2564 9.22845 26.9185 10.4582C23.6547 13.4605 20.8917 16.965 18.7338 20.8391L18.7232 20.83Z" fill="#00D8FF"/>
<path d="M33.2495 43.1302C31.1957 43.1302 28.5872 41.8874 25.8711 39.5517C22.3952 36.3889 19.4537 32.6847 17.1605 28.5827C14.782 24.6031 13.0555 20.2685 12.0466 15.7434C11.609 13.7525 11.528 11.6998 11.8071 9.68064C11.8717 8.9316 12.0997 8.20584 12.4753 7.55454C12.8508 6.90323 13.3647 6.34225 13.9806 5.91114C16.2344 4.60614 20.0585 5.94751 23.9614 9.41236C27.2058 12.4774 29.961 16.0218 32.1309 19.9221C34.508 23.8088 36.2525 28.0485 37.2994 32.4826C37.7558 34.5465 37.8262 36.677 37.507 38.7666C37.4311 39.5372 37.1894 40.2822 36.7986 40.9507C36.4077 41.6191 35.8769 42.1951 35.2426 42.6392C34.6336 42.9767 33.9457 43.1462 33.2495 43.1302ZM18.7292 27.6703C20.9292 31.5905 23.739 35.1356 27.0534 38.1724C30.4621 41.1053 33.1661 41.7358 34.3287 41.0522C35.5412 40.3474 36.4354 37.4707 35.5139 32.816C34.5043 28.5826 32.831 24.5357 30.5561 20.8255C28.4854 17.0925 25.8556 13.6985 22.7579 10.7613C19.0839 7.49957 16.1041 6.77053 14.89 7.47381C14.5116 7.78131 14.2011 8.16393 13.978 8.59751C13.755 9.03109 13.6243 9.50621 13.5941 9.99287C13.3531 11.7936 13.4316 13.6228 13.826 15.3963C14.7965 19.7238 16.4523 23.8684 18.7308 27.6733L18.7292 27.6703Z" fill="#00D8FF"/>
</svg>
