<svg width="50" height="49" viewBox="0 0 50 49" fill="none" xmlns="http://www.w3.org/2000/svg">
<path d="M22.0765 6.06274H28.0862V33.6012C25.5209 34.1277 22.9098 34.3993 20.291 34.4121C12.9521 34.4045 9.13259 31.1261 9.13259 24.8299C9.13259 18.7672 13.184 14.8264 19.4635 14.8264C20.3442 14.8092 21.2231 14.9112 22.0765 15.1296V6.06274ZM22.0765 19.9191C21.4232 19.7036 20.7379 19.6011 20.05 19.616C17.0187 19.616 15.2559 21.4697 15.2559 24.7178C15.2559 27.881 16.9338 29.6271 20.0122 29.6271C20.703 29.6269 21.393 29.5762 22.0765 29.4755V19.9267V19.9191Z" fill="#44B78B"/>
<path d="M37.635 15.2462V29.0389C37.635 33.7876 37.2788 36.0702 36.236 38.0391C35.1718 40.041 33.4315 41.6002 31.3252 42.4391L25.7505 39.8124C27.7758 39.1189 29.472 37.6992 30.5113 35.8277C31.3692 34.1286 31.6405 32.1597 31.6405 26.9806V15.2462H37.635ZM31.6344 6.09302H37.6426V12.1982H31.6344V6.09302Z" fill="#44B78B"/>
</svg>
